<svg xmlns="http://www.w3.org/2000/svg" version="1.1" xmlns:xlink="http://www.w3.org/1999/xlink" xmlns:svgjs="http://svgjs.dev/svgjs" width="2000" height="353" viewBox="0 0 2000 353"><g transform="matrix(1,0,0,1,-1.2121212121212466,-2.489457929528129)"><svg viewBox="0 0 396 70" data-background-color="#ffffff" preserveAspectRatio="xMidYMid meet" height="353" width="2000" xmlns="http://www.w3.org/2000/svg" xmlns:xlink="http://www.w3.org/1999/xlink"><g id="tight-bounds" transform="matrix(1,0,0,1,0.2400000000000091,0.49366021265430504)"><svg viewBox="0 0 395.52 69.01267957469138" height="69.01267957469138" width="395.52"><g><svg viewBox="0 0 500.04834455335356 87.251406185567" height="69.01267957469138" width="395.52"><g></g><g transform="matrix(1,0,0,1,104.52834455335362,0.2170432989690667)"><svg viewBox="0 0 395.52 86.81731958762887" height="86.81731958762887" width="395.52"><g id="textblocktransform"><svg viewBox="0 0 395.52 86.81731958762887" height="86.81731958762887" width="395.52" id="textblock"><g><svg viewBox="0 0 395.52 86.81731958762887" height="86.81731958762887" width="395.52"><g transform="matrix(1,0,0,1,0,0)"><svg width="395.52" viewBox="3.1 -25.2 116.39 25.55" height="86.81731958762887" data-palette-color="url(#2731427a-71ff-408c-8b3c-df6dd8ea8833)"></svg></g></svg></g></svg></g></svg></g><g transform="matrix(1,0,0,1,0,0.2170432989690667)"><svg viewBox="0 0 55.70809799952928 86.81731958762887" height="86.81731958762887" width="55.70809799952928"><g><svg xmlns="http://www.w3.org/2000/svg" xmlns:xlink="http://www.w3.org/1999/xlink" version="1.1" x="0" y="0" viewBox="17.67895496245008 1.783 61.75123785926564 96.23514613988172" enable-background="new 0 0 100 100" xml:space="preserve" height="86.81731958762887" width="55.70809799952928" class="icon-icon-0" data-fill-palette-color="accent" id="icon-0"></svg></g></svg></g></svg></g><defs></defs><mask id="8d09bb0e-8825-4042-9907-506f7b52b7d3"><g id="SvgjsG1359"><svg viewBox="0 0 395.52 69.01267957469138" height="69.01267957469138" width="395.52"><g><svg viewBox="0 0 500.04834455335356 87.251406185567" height="69.01267957469138" width="395.52"><g><rect width="7.829275475886186" height="87.251406185567" x="76.20358353849835" y="0" fill="white" opacity="1" stroke-width="0" stroke="transparent" fill-opacity="1" class="rect-yte-0" rx="1%" id="SvgjsRect1358" data-palette-color="url(#2731427a-71ff-408c-8b3c-df6dd8ea8833)"></rect></g><g transform="matrix(1,0,0,1,104.52834455335362,0.2170432989690667)"><svg viewBox="0 0 395.52 86.81731958762887" height="86.81731958762887" width="395.52"><g id="SvgjsG1357"><svg viewBox="0 0 395.52 86.81731958762887" height="86.81731958762887" width="395.52" id="SvgjsSvg1356"><g><svg viewBox="0 0 395.52 86.81731958762887" height="86.81731958762887" width="395.52"><g transform="matrix(1,0,0,1,0,0)"><svg width="395.52" viewBox="3.1 -25.2 116.39 25.55" height="86.81731958762887" data-palette-color="url(#2731427a-71ff-408c-8b3c-df6dd8ea8833)"><path d="M28.45-24.9L31 0 27.65 0 27.1-7.6 25.75-19.1 25.45-19.1 18.3-2.8 15.35-2.8 8.6-19.1 8.3-19.1 7-7.9 6.3 0 3.1 0 5.85-24.9 10.2-24.9 11.45-21.15 16.9-7.75 17.2-7.75 22.9-21.35 24.2-24.9 28.45-24.9ZM47.2-3L53.85-3.2 54.15-2.9 53.8 0 38.65 0 38.8-7.5 38.65-24.9 53.9-24.9 54.15-24.6 53.85-21.7 47.55-21.9 42.35-21.85 42.3-14.3 47.25-14.25 51.6-14.4 51.85-14.05 51.55-11.1 46.95-11.25 42.3-11.2 42.25-7.8 42.3-3.05 47.2-3ZM73.59-3.15L73.8-2.8 73.55 0 60.3 0 60.45-7.5 60.3-24.9 64.05-24.9 63.9-7.8 64-3.15 73.59-3.15ZM87.29-25.2Q92.74-25.2 95.67-22 98.59-18.8 98.59-12.95L98.59-12.95Q98.59-6.6 95.47-3.13 92.34 0.35 86.54 0.35L86.54 0.35Q81.14 0.35 78.19-2.93 75.24-6.2 75.24-12.25L75.24-12.25Q75.24-18.45 78.39-21.83 81.54-25.2 87.29-25.2L87.29-25.2ZM86.94-22.05Q82.99-22.05 81.07-19.8 79.14-17.55 79.14-12.7L79.14-12.7Q79.14-7.5 81.04-5.15 82.94-2.8 86.84-2.8L86.84-2.8Q90.84-2.8 92.79-5.1 94.74-7.4 94.74-12.3L94.74-12.3Q94.74-17.35 92.82-19.7 90.89-22.05 86.94-22.05L86.94-22.05ZM112.69-25.15Q115.74-25.15 118.79-23.95L118.79-23.95 118.14-20.25 117.54-20.1Q116.14-21.2 114.89-21.73 113.64-22.25 112.29-22.25L112.29-22.25Q110.14-22.25 108.89-21.13 107.64-20 107.64-18.55L107.64-18.55Q107.64-17.1 108.87-16.2 110.09-15.3 112.64-14.2L112.64-14.2Q114.89-13.2 116.22-12.4 117.54-11.6 118.52-10.28 119.49-8.95 119.49-7.05L119.49-7.05Q119.49-5.1 118.44-3.43 117.39-1.75 115.37-0.73 113.34 0.3 110.54 0.3L110.54 0.3Q108.79 0.3 106.87-0.13 104.94-0.55 103.29-1.4L103.29-1.4 103.74-5.35 104.24-5.55Q105.64-4.15 107.52-3.38 109.39-2.6 110.99-2.6L110.99-2.6Q113.09-2.6 114.44-3.73 115.79-4.85 115.79-6.45L115.79-6.45Q115.79-7.95 114.56-8.85 113.34-9.75 110.74-10.95L110.74-10.95Q108.59-11.9 107.22-12.7 105.84-13.5 104.89-14.83 103.94-16.15 103.94-18.05L103.94-18.05Q103.94-20.05 105.02-21.65 106.09-23.25 108.06-24.2 110.04-25.15 112.69-25.15L112.69-25.15Z" opacity="1" transform="matrix(1,0,0,1,0,0)" fill="white" class="wordmark-text-0" id="SvgjsPath1355"></path></svg></g></svg></g></svg></g></svg></g><g transform="matrix(1,0,0,1,0,0.2170432989690667)"><svg viewBox="0 0 55.70809799952928 86.81731958762887" height="86.81731958762887" width="55.70809799952928"><g><svg xmlns="http://www.w3.org/2000/svg" xmlns:xlink="http://www.w3.org/1999/xlink" version="1.1" x="0" y="0" viewBox="17.67895496245008 1.783 61.75123785926564 96.23514613988172" enable-background="new 0 0 100 100" xml:space="preserve" height="86.81731958762887" width="55.70809799952928" class="icon-icon-0" data-fill-palette-color="accent" id="SvgjsSvg1354"><path d="M67.988 14.273C61.139 10.895 57.3 5.113 55.97 2.793V1.783H47.277V70.145C43.704 68.544 39.334 67.898 34.761 68.542 24.25 70.027 16.653 77.773 17.792 85.844 18.932 93.915 28.376 99.256 38.888 97.77 48.817 96.369 56.143 89.379 55.963 81.807H55.97V20.133C57.642 21.377 62.98 21.349 68.528 26.897 75.323 33.693 72.848 46.261 72.848 46.261 83.786 37.945 80.355 20.374 67.988 14.273" fill="black"></path></svg></g></svg></g></svg></g><defs><mask></mask></defs></svg><rect width="395.52" height="69.01267957469138" fill="black" stroke="none" visibility="hidden"></rect></g></mask><linearGradient x1="0" x2="1" y1="0.578" y2="0.595" id="2731427a-71ff-408c-8b3c-df6dd8ea8833"><stop stop-color="#dede50" offset="0"></stop><stop stop-color="#559c49" offset="1"></stop></linearGradient><rect width="395.52" height="69.01267957469138" fill="url(#2731427a-71ff-408c-8b3c-df6dd8ea8833)" mask="url(#8d09bb0e-8825-4042-9907-506f7b52b7d3)" data-fill-palette-color="primary"></rect><mask id="f51a51f4-4fdf-4779-a9f3-40d00d7ffe2d"><g id="SvgjsG1380"><svg viewBox="0 0 395.52 69.01267957469138" height="69.01267957469138" width="395.52"><g><svg viewBox="0 0 500.04834455335356 87.251406185567" height="69.01267957469138" width="395.52"><g></g><g transform="matrix(1,0,0,1,104.52834455335362,0.2170432989690667)"><svg viewBox="0 0 395.52 86.81731958762887" height="86.81731958762887" width="395.52"><g id="SvgjsG1379"><svg viewBox="0 0 395.52 86.81731958762887" height="86.81731958762887" width="395.52" id="SvgjsSvg1378"><g><svg viewBox="0 0 395.52 86.81731958762887" height="86.81731958762887" width="395.52"><g transform="matrix(1,0,0,1,0,0)"><svg width="395.52" viewBox="3.1 -25.2 116.39 25.55" height="86.81731958762887" data-palette-color="url(#2731427a-71ff-408c-8b3c-df6dd8ea8833)"></svg></g></svg></g></svg></g></svg></g><g transform="matrix(1,0,0,1,0,0.2170432989690667)"><svg viewBox="0 0 55.70809799952928 86.81731958762887" height="86.81731958762887" width="55.70809799952928"><g><svg xmlns="http://www.w3.org/2000/svg" xmlns:xlink="http://www.w3.org/1999/xlink" version="1.1" x="0" y="0" viewBox="17.67895496245008 1.783 61.75123785926564 96.23514613988172" enable-background="new 0 0 100 100" xml:space="preserve" height="86.81731958762887" width="55.70809799952928" class="icon-icon-0" data-fill-palette-color="accent" id="SvgjsSvg1377"><path d="M67.988 14.273C61.139 10.895 57.3 5.113 55.97 2.793V1.783H47.277V70.145C43.704 68.544 39.334 67.898 34.761 68.542 24.25 70.027 16.653 77.773 17.792 85.844 18.932 93.915 28.376 99.256 38.888 97.77 48.817 96.369 56.143 89.379 55.963 81.807H55.97V20.133C57.642 21.377 62.98 21.349 68.528 26.897 75.323 33.693 72.848 46.261 72.848 46.261 83.786 37.945 80.355 20.374 67.988 14.273" fill="white"></path></svg></g></svg></g></svg></g><defs><mask></mask></defs><mask><g id="SvgjsG1376"><svg viewBox="0 0 395.52 69.01267957469138" height="69.01267957469138" width="395.52"><g><svg viewBox="0 0 500.04834455335356 87.251406185567" height="69.01267957469138" width="395.52"><g><rect width="7.829275475886186" height="87.251406185567" x="76.20358353849835" y="0" fill="black" opacity="1" stroke-width="0" stroke="transparent" fill-opacity="1" class="rect-yte-0" rx="1%" id="SvgjsRect1375" data-palette-color="url(#2731427a-71ff-408c-8b3c-df6dd8ea8833)"></rect></g><g transform="matrix(1,0,0,1,104.52834455335362,0.2170432989690667)"><svg viewBox="0 0 395.52 86.81731958762887" height="86.81731958762887" width="395.52"><g id="SvgjsG1374"><svg viewBox="0 0 395.52 86.81731958762887" height="86.81731958762887" width="395.52" id="SvgjsSvg1373"><g><svg viewBox="0 0 395.52 86.81731958762887" height="86.81731958762887" width="395.52"><g transform="matrix(1,0,0,1,0,0)"><svg width="395.52" viewBox="3.1 -25.2 116.39 25.55" height="86.81731958762887" data-palette-color="url(#2731427a-71ff-408c-8b3c-df6dd8ea8833)"><path d="M28.45-24.9L31 0 27.65 0 27.1-7.6 25.75-19.1 25.45-19.1 18.3-2.8 15.35-2.8 8.6-19.1 8.3-19.1 7-7.9 6.3 0 3.1 0 5.85-24.9 10.2-24.9 11.45-21.15 16.9-7.75 17.2-7.75 22.9-21.35 24.2-24.9 28.45-24.9ZM47.2-3L53.85-3.2 54.15-2.9 53.8 0 38.65 0 38.8-7.5 38.65-24.9 53.9-24.9 54.15-24.6 53.85-21.7 47.55-21.9 42.35-21.85 42.3-14.3 47.25-14.25 51.6-14.4 51.85-14.05 51.55-11.1 46.95-11.25 42.3-11.2 42.25-7.8 42.3-3.05 47.2-3ZM73.59-3.15L73.8-2.8 73.55 0 60.3 0 60.45-7.5 60.3-24.9 64.05-24.9 63.9-7.8 64-3.15 73.59-3.15ZM87.29-25.2Q92.74-25.2 95.67-22 98.59-18.8 98.59-12.95L98.59-12.95Q98.59-6.6 95.47-3.13 92.34 0.35 86.54 0.35L86.54 0.35Q81.14 0.35 78.19-2.93 75.24-6.2 75.24-12.25L75.24-12.25Q75.24-18.45 78.39-21.83 81.54-25.2 87.29-25.2L87.29-25.2ZM86.94-22.05Q82.99-22.05 81.07-19.8 79.14-17.55 79.14-12.7L79.14-12.7Q79.14-7.5 81.04-5.15 82.94-2.8 86.84-2.8L86.84-2.8Q90.84-2.8 92.79-5.1 94.74-7.4 94.74-12.3L94.74-12.3Q94.74-17.35 92.82-19.7 90.89-22.05 86.94-22.05L86.94-22.05ZM112.69-25.15Q115.74-25.15 118.79-23.95L118.79-23.95 118.14-20.25 117.54-20.1Q116.14-21.2 114.89-21.73 113.64-22.25 112.29-22.25L112.29-22.25Q110.14-22.25 108.89-21.13 107.64-20 107.64-18.55L107.64-18.55Q107.64-17.1 108.87-16.2 110.09-15.3 112.64-14.2L112.64-14.2Q114.89-13.2 116.22-12.4 117.54-11.6 118.52-10.28 119.49-8.95 119.49-7.05L119.49-7.05Q119.49-5.1 118.44-3.43 117.39-1.75 115.37-0.73 113.34 0.3 110.54 0.3L110.54 0.3Q108.79 0.3 106.87-0.13 104.94-0.55 103.29-1.4L103.29-1.4 103.74-5.35 104.24-5.55Q105.64-4.15 107.52-3.38 109.39-2.6 110.99-2.6L110.99-2.6Q113.09-2.6 114.44-3.73 115.79-4.85 115.79-6.45L115.79-6.45Q115.79-7.95 114.56-8.85 113.34-9.75 110.74-10.95L110.74-10.95Q108.59-11.9 107.22-12.7 105.84-13.5 104.89-14.83 103.94-16.15 103.94-18.05L103.94-18.05Q103.94-20.05 105.02-21.65 106.09-23.25 108.06-24.2 110.04-25.15 112.69-25.15L112.69-25.15Z" opacity="1" transform="matrix(1,0,0,1,0,0)" fill="black" class="wordmark-text-0" id="SvgjsPath1372"></path></svg></g></svg></g></svg></g></svg></g><g transform="matrix(1,0,0,1,0,0.2170432989690667)"><svg viewBox="0 0 55.70809799952928 86.81731958762887" height="86.81731958762887" width="55.70809799952928"><g><svg xmlns="http://www.w3.org/2000/svg" xmlns:xlink="http://www.w3.org/1999/xlink" version="1.1" x="0" y="0" viewBox="17.67895496245008 1.783 61.75123785926564 96.23514613988172" enable-background="new 0 0 100 100" xml:space="preserve" height="86.81731958762887" width="55.70809799952928" class="icon-icon-0" data-fill-palette-color="accent" id="SvgjsSvg1371"><path d="M67.988 14.273C61.139 10.895 57.3 5.113 55.97 2.793V1.783H47.277V70.145C43.704 68.544 39.334 67.898 34.761 68.542 24.25 70.027 16.653 77.773 17.792 85.844 18.932 93.915 28.376 99.256 38.888 97.77 48.817 96.369 56.143 89.379 55.963 81.807H55.97V20.133C57.642 21.377 62.98 21.349 68.528 26.897 75.323 33.693 72.848 46.261 72.848 46.261 83.786 37.945 80.355 20.374 67.988 14.273" fill="black"></path></svg></g></svg></g></svg></g><defs><mask></mask></defs></svg><rect width="395.52" height="69.01267957469138" fill="black" stroke="none" visibility="hidden"></rect></g></mask></svg><rect width="395.52" height="69.01267957469138" fill="black" stroke="none" visibility="hidden"></rect></g></mask><linearGradient x1="0" x2="1" y1="0.578" y2="0.595" id="81263cc8-9016-44d6-a162-a1de4f24733d"><stop stop-color="#dede50" offset="0"></stop><stop stop-color="#559c49" offset="1"></stop></linearGradient><rect width="395.52" height="69.01267957469138" fill="url(#81263cc8-9016-44d6-a162-a1de4f24733d)" mask="url(#f51a51f4-4fdf-4779-a9f3-40d00d7ffe2d)" data-fill-palette-color="accent"></rect></svg><rect width="395.52" height="69.01267957469138" fill="none" stroke="none" visibility="hidden"></rect></g></svg></g></svg>